Coordinates
version=1
nRows=9
nColumns=36
inDegrees=yes

Units are S.I. units (second, meters, Newtons, ...)
If the header above contains a line with 'inDegrees', this indicates whether rotational values are in degrees (yes) or radians (no).

endheader
time	pelvis_tilt	pelvis_list	pelvis_rotation	pelvis_tx	pelvis_ty	pelvis_tz	hip_flexion_r	hip_adduction_r	hip_rotation_r	knee_angle_r	knee_angle_r_beta	ankle_angle_r	subtalar_angle_r	mtp_angle_r	hip_flexion_l	hip_adduction_l	hip_rotation_l	knee_angle_l	knee_angle_l_beta	ankle_angle_l	subtalar_angle_l	mtp_angle_l	lumbar_extension	lumbar_bending	lumbar_rotation	arm_flex_r	arm_add_r	arm_rot_r	elbow_flex_r	pro_sup_r	arm_flex_l	arm_add_l	arm_rot_l	elbow_flex_l	pro_sup_l
     45.00000000	     -7.16436035	     -8.67233471	     -0.14053434	      0.88675166	      1.02019035	      0.88118379	     22.60437792	      9.67144514	     -6.02389312	     17.05685195	      0.29769823	      7.30734253	     -7.21505279	     -7.49999987	      7.37122224	    -11.79522036	     -1.38203543	     43.99329079	      0.76782777	     -5.80552842	     -0.74157314	     -7.49999987	      1.64848195	     12.70159521	     -1.45393867	      1.83823641	    -11.65170965	      0.24810321	     17.33109638	     78.09555112	      1.31227001	     -4.87687860	     -5.39920968	     23.01702109	     73.07367313
     45.01666670	     -7.02948610	     -9.33918403	      0.19349381	      0.89024577	      1.02122859	      0.88308921	     21.24186488	     10.49830391	     -6.41464237	     16.66461626	      0.29085242	      8.51736853	     -7.00711413	     -7.49999987	      9.03425704	    -12.68013444	     -0.29840235	     47.16064606	      0.82310855	     -8.44119737	     -2.10133519	     -7.49999987	      1.93502880	     13.27166498	     -1.35487091	      1.58191172	    -11.77203978	     -0.04871326	     17.68494607	     77.61918090	      0.49668862	     -4.59333741	     -5.31291346	     21.38741024	     72.94133527
     45.03333330	     -6.90209566	     -9.76996798	      0.40903030	      0.89201292	      1.02238773	      0.88435229	     19.80314029	     11.10679081	     -6.67684604	     16.12957544	      0.28151420	      9.59236856	     -6.73031833	     -7.49999987	     10.92186505	    -13.27422672	      0.69069373	     50.22466919	      0.87658584	     -9.79352307	     -3.81359740	     -7.49999987	      1.98547922	     13.61725816	     -0.98672303	      1.39997887	    -11.91375137	     -0.32179537	     18.00129440	     77.20797270	     -0.40364464	     -4.36843713	     -5.20765817	     20.16563880	     72.81076860
     45.05000000	     -7.02341699	     -9.82459082	      0.64172773	      0.89028908	      1.02266773	      0.88505962	     18.60714835	     11.23793238	     -7.17027739	     15.56161320	      0.27160139	     10.68916322	     -5.85931126	     -7.49999987	     13.37264214	    -13.34556953	      1.79886846	     53.23567097	      0.92913774	    -10.12162781	     -6.13025896	     -7.49999987	      2.27850591	     13.52869789	      0.27889825	      0.43026930	    -12.00391232	     -2.26297251	     19.27066219	     73.53027903	     -0.33553257	     -4.33520252	     -2.88148429	     17.42078234	     71.70231984
     45.06666670	     -6.94806316	     -9.77419499	      0.80624478	      0.88710293	      1.02231700	      0.88616154	     17.25238591	     11.28963150	     -7.58312107	     15.03347530	      0.26238364	     11.44243342	     -5.06943627	     -7.49999987	     15.79868422	    -13.33404828	      2.68709337	     56.08732217	      0.97890844	     -9.68174655	     -8.48670197	     -7.49999987	      2.08688199	     13.37970540	      0.72234177	      0.49247787	    -12.00025734	     -2.11385545	     19.61624916	     73.16803868	     -1.07323665	     -4.26326105	     -2.73733958	     16.70018806	     71.34550013
     45.08333330	     -6.85341809	     -9.48036979	      0.90321478	      0.88541051	      1.02209844	      0.88743493	     15.96049249	     11.07970563	     -7.93782260	     14.63262749	      0.25538753	     12.12291957	     -4.14244123	     -7.49999987	     18.19332727	    -13.00593230	      3.40016779	     58.64188888	      1.02349404	     -8.73065151	    -10.55505720	     -7.49999987	      1.74528190	     13.00924229	      1.43247633	      0.43921408	    -12.07421284	     -1.55280216	     20.28402731	     70.82027302	     -1.53324372	     -4.31252045	     -1.83134158	     15.92190138	     69.36190197
     45.10000000	     -6.59840023	     -8.96858358	      0.90912224	      0.88489257	      1.02292508	      0.88904294	     14.53265011	     10.69416416	     -7.94295332	     14.21628070	      0.24812091	     12.55469599	     -3.53662175	     -7.49999987	     20.22276058	    -12.42695441	      3.88908082	     60.67355189	      1.05895325	     -7.60134072	    -11.95441078	     -7.49999987	      1.10184623	     12.44814644	      2.01913446	      0.65952457	    -12.00152416	     -1.54281710	     20.87752317	     69.48580452	     -2.09332971	     -4.36027130	     -1.82204024	     15.61398867	     68.16092802
     45.11666670	     -6.11220143	     -8.29148565	      0.88498603	      0.88319324	      1.02493351	      0.89106127	     12.88834770	     10.09190229	     -8.06778488	     13.76360814	      0.24022028	     13.22916858	     -2.38037722	     -7.49999987	     21.73838340	    -11.67388729	      4.18861928	     62.03747533	      1.08275820	     -6.54267843	    -12.81443513	     -7.49999987	      0.07310640	     11.71423288	      2.70860116	      0.93152131	    -12.03602622	     -0.63743396	     21.67773665	     68.43191688	     -2.51937243	     -4.56155386	     -0.54297973	     15.43537537	     67.20722396
     45.13333330	     -5.56048047	     -7.53832125	      0.89391442	      0.87944436	      1.02681115	      0.89296291	     11.23519464	      9.39307373	     -8.15499303	     13.24767401	      0.23121553	     13.81683160	     -1.49165206	     -7.49999987	     22.99352508	    -10.86072555	      4.37864279	     62.71667064	      1.09461240	     -5.51419880	    -13.39080680	     -7.49999987	     -1.09605132	     10.88425951	      3.26024875	      1.42858471	    -11.94561915	     -0.07662911	     22.33364983	     67.32161724	     -2.84345013	     -4.75217492	      0.47514853	     15.28590350	     66.09379690
